<svg width="100%" height="100%" id="svg" viewBox="0 0 1440 590" xmlns="http://www.w3.org/2000/svg" class="transition duration-300 ease-in-out delay-150"><defs><linearGradient id="gradient" x1="100%" y1="52%" x2="0%" y2="48%"><stop offset="5%" stop-color="#ffffff"></stop><stop offset="95%" stop-color="#f5f5f5"></stop></linearGradient></defs><path d="M 0,600 C 0,600 0,150 0,150 C 205.71428571428572,192.85714285714286 822.8571428571429,171.42857142857144 1440,150 C 1440,150 1440,600 1440,600 Z" stroke="none" stroke-width="0" fill="url(#gradient)" fill-opacity="0.4" class="transition-all duration-300 ease-in-out delay-150 path-0" transform="rotate(-180 720 300)"></path><defs><linearGradient id="gradient" x1="100%" y1="52%" x2="0%" y2="48%"><stop offset="5%" stop-color="#ffffff"></stop><stop offset="95%" stop-color="#f5f5f5"></stop></linearGradient></defs><path d="M 0,600 C 0,600 0,300 0,300 C 205.71428571428572,385.7142857142857 822.8571428571429,342.8571428571429 1440,300 C 1440,300 1440,600 1440,600 Z" stroke="none" stroke-width="0" fill="url(#gradient)" fill-opacity="0.53" class="transition-all duration-300 ease-in-out delay-150 path-1" transform="rotate(-180 720 300)"></path><defs><linearGradient id="gradient" x1="100%" y1="52%" x2="0%" y2="48%"><stop offset="5%" stop-color="#ffffff"></stop><stop offset="95%" stop-color="#f5f5f5"></stop></linearGradient></defs><path d="M 0,600 C 0,600 0,450 0,450 C 205.71428571428572,578.5714285714286 822.8571428571429,514.2857142857142 1440,450 C 1440,450 1440,600 1440,600 Z" stroke="none" stroke-width="0" fill="url(#gradient)" fill-opacity="1" class="transition-all duration-300 ease-in-out delay-150 path-2" transform="rotate(-180 720 300)"></path></svg>